# xmcd
#
# Track frame offsets:
# 150
# 13956
# 26832
# 37124
# 54183
# 66873
# 80300
# 93035
# 111010
# 126505
# 143564
# 158567
# 175013
# 191985
# 206885
# 235407
# 249126
# 269818
# 311713
#
# Disc length: 4606 seconds
#
# Revision: 0
# Processed by: cddbd v1.5.2PL0 Copyright (c) Steve Scherf et al.
# Submitted via: Audion 3.0.2 (http://www.panic.com/audion/)
#
DISCID=0d11fc13
DTITLE=Rolling Stones - Hot Rocks
DYEAR=1900
DGENRE=
TTITLE0=Brown Sugar
TTITLE1=Wild Horses
TTITLE2=(I Can't Get No) Satisfaction
TTITLE3=Wild Horses
TTITLE4=Bitch
TTITLE5=Undercover (Of the Night)
TTITLE6=Start Me Up
TTITLE7=Brown Sugar
TTITLE8=Harlem Shuffle
TTITLE9=It's Only Rock 'n' Roll (But I Like It)
TTITLE10=Mixed Emotions
TTITLE11=Angie
TTITLE12=Tumbling Dice
TTITLE13=Fool to Cry
TTITLE14=Rock and a Hard Place
TTITLE15=Miss You
TTITLE16=Hot Stuff
TTITLE17=Emotional Rescue
TTITLE18=Respectable
EXTD=
EXTT0=
EXTT1=
EXTT2=
EXTT3=
EXTT4=
EXTT5=
EXTT6=
EXTT7=
EXTT8=
EXTT9=
EXTT10=
EXTT11=
EXTT12=
EXTT13=
EXTT14=
EXTT15=
EXTT16=
EXTT17=
EXTT18=
PLAYORDER=
